<svg id="Layer_1" data-name="Layer 1" xmlns="http://www.w3.org/2000/svg" viewBox="0 0 512 512">
<defs><style>.cls-1{fill:#80d1f9;}.cls-2{fill:#fff;}.cls-3{fill:#f47878;}.cls-4{fill:#141f38;}</style></defs>
<title>browser-14-filled</title>
<path class="cls-1" d="M12.8,128V64A51.26,51.26,0,0,1,64,12.8H448A51.26,51.26,0,0,1,499.2,64v64Z"/>
<path class="cls-2" d="M64,499.2A51.26,51.26,0,0,1,12.8,448V128H499.2V448A51.26,51.26,0,0,1,448,499.2Z"/>
<rect class="cls-3" x="76.8" y="192" width="358.4" height="76.8" rx="19.2" ry="19.2"/>
<rect class="cls-3" x="76.8" y="371.2" width="76.8" height="64" rx="19.2" ry="19.2"/>
<rect class="cls-3" x="217.6" y="371.2" width="76.8" height="64" rx="19.2" ry="19.2"/>
<rect class="cls-3" x="358.4" y="371.2" width="76.8" height="64" rx="19.2" ry="19.2"/>
<path class="cls-4" d="M448,0H64A64,64,0,0,0,0,64V448a64,64,0,0,0,64,64H448a64,64,0,0,0,64-64V64A64,64,0,0,0,448,0Zm38.4,448A38.44,38.44,0,0,1,448,486.4H64A38.44,38.44,0,0,1,25.6,448V140.8H486.4ZM25.6,115.2V64A38.44,38.44,0,0,1,64,25.6H448A38.44,38.44,0,0,1,486.4,64v51.2Z"/>
<circle class="cls-4" cx="70.4" cy="70.4" r="19.2"/>
<circle class="cls-4" cx="121.6" cy="70.4" r="19.2"/>
<circle class="cls-4" cx="172.8" cy="70.4" r="19.2"/>
<path class="cls-4" d="M96,281.6H416a32,32,0,0,0,32-32V211.2a32,32,0,0,0-32-32H96a32,32,0,0,0-32,32v38.4A32,32,0,0,0,96,281.6Zm-6.4-70.4a6.41,6.41,0,0,1,6.4-6.4H416a6.41,6.41,0,0,1,6.4,6.4v38.4A6.41,6.41,0,0,1,416,256H96a6.41,6.41,0,0,1-6.4-6.4Z"/>
<circle class="cls-4" cx="217.6" cy="320" r="12.8"/>
<circle class="cls-4" cx="256" cy="320" r="12.8"/>
<circle class="cls-4" cx="294.4" cy="320" r="12.8"/>
<path class="cls-4" d="M96,448h38.4a32,32,0,0,0,32-32V390.4a32,32,0,0,0-32-32H96a32,32,0,0,0-32,32V416A32,32,0,0,0,96,448Zm-6.4-57.6A6.41,6.41,0,0,1,96,384h38.4a6.41,6.41,0,0,1,6.4,6.4V416a6.41,6.41,0,0,1-6.4,6.4H96a6.41,6.41,0,0,1-6.4-6.4Z"/>
<path class="cls-4" d="M275.2,358.4H236.8a32,32,0,0,0-32,32V416a32,32,0,0,0,32,32h38.4a32,32,0,0,0,32-32V390.4A32,32,0,0,0,275.2,358.4Zm6.4,57.6a6.41,6.41,0,0,1-6.4,6.4H236.8a6.41,6.41,0,0,1-6.4-6.4V390.4a6.41,6.41,0,0,1,6.4-6.4h38.4a6.41,6.41,0,0,1,6.4,6.4Z"/>
<path class="cls-4" d="M416,358.4H377.6a32,32,0,0,0-32,32V416a32,32,0,0,0,32,32H416a32,32,0,0,0,32-32V390.4A32,32,0,0,0,416,358.4Zm6.4,57.6a6.41,6.41,0,0,1-6.4,6.4H377.6a6.41,6.41,0,0,1-6.4-6.4V390.4a6.41,6.41,0,0,1,6.4-6.4H416a6.41,6.41,0,0,1,6.4,6.4Z"/>
</svg>